# xmcd CD database file
#
# Track frame offsets:
#	150
#	28166
#	53847
#	77606
#	102884
#	133640
#	156431
#	184027
#	210033
#	235381
#	260551
#	285811
#
# Disc length: 4126 seconds
#
# Revision: 2
# Processed by: cddbd v1.5PL3 Copyright (c) Steve Scherf et al.
# Submitted via: CDex 1.51
#
DISCID=99101c0c
DTITLE=None - Enchanting Angels Music
DYEAR=1900
DGENRE=New Age
TTITLE0=Neptune's Jaunt
TTITLE1=The Path to Eternity
TTITLE2=Remedy of an Angel
TTITLE3=Angels in Esse
TTITLE4=Temporal Provisions
TTITLE5=My New Wings
TTITLE6=Heart to Heart
TTITLE7=A Blessing in Disguise
TTITLE8=Mesage of Life
TTITLE9=Plato's Ethereal Whim
TTITLE10=Can You See Me?
TTITLE11=Token of Endearment
EXTD=
EXTT0=
EXTT1=
EXTT2=
EXTT3=
EXTT4=
EXTT5=
EXTT6=
EXTT7=
EXTT8=
EXTT9=
EXTT10=
EXTT11=
PLAYORDER=
